<?xml version="1.0" encoding="UTF-8" ?>
<svg version="1.1" width="32" height="32" xmlns="http://www.w3.org/2000/svg" shape-rendering="crispEdges">
<rect x="14" y="8" width="4" height="1" fill="#000000" />
<rect x="11" y="9" width="3" height="1" fill="#000000" />
<rect x="14" y="9" width="4" height="1" fill="#AB5236" />
<rect x="18" y="9" width="3" height="1" fill="#000000" />
<rect x="10" y="10" width="1" height="1" fill="#000000" />
<rect x="11" y="10" width="10" height="12" fill="#FFEC27" />
<rect x="21" y="10" width="1" height="1" fill="#000000" />
<rect x="9" y="11" width="1" height="4" fill="#000000" />
<rect x="10" y="11" width="1" height="10" fill="#FFEC27" />
<rect x="21" y="11" width="1" height="10" fill="#FFEC27" />
<rect x="22" y="11" width="1" height="10" fill="#000000" />
<rect x="8" y="15" width="1" height="2" fill="#000000" />
<rect x="9" y="15" width="1" height="2" fill="#FFCCAA" />
<rect x="9" y="17" width="1" height="4" fill="#000000" />
<rect x="10" y="21" width="1" height="1" fill="#000000" />
<rect x="21" y="21" width="1" height="1" fill="#000000" />
<rect x="11" y="22" width="3" height="1" fill="#000000" />
<rect x="14" y="22" width="4" height="1" fill="#AB5236" />
<rect x="18" y="22" width="3" height="1" fill="#000000" />
<rect x="14" y="23" width="4" height="1" fill="#000000" />
</svg>