<?xml version="1.0" encoding="UTF-8" ?>
<svg version="1.1" width="128" height="128" xmlns="http://www.w3.org/2000/svg" shape-rendering="crispEdges">
<rect x="14" y="8" width="4" height="1" fill="#000000" />
<rect x="78" y="8" width="4" height="1" fill="#000000" />
<rect x="111" y="8" width="2" height="1" fill="#000000" />
<rect x="11" y="9" width="3" height="1" fill="#000000" />
<rect x="14" y="9" width="4" height="1" fill="#AB5236" />
<rect x="18" y="9" width="3" height="1" fill="#000000" />
<rect x="43" y="9" width="10" height="1" fill="#000000" />
<rect x="75" y="9" width="3" height="1" fill="#000000" />
<rect x="78" y="9" width="4" height="1" fill="#AB5236" />
<rect x="82" y="9" width="3" height="1" fill="#000000" />
<rect x="107" y="9" width="4" height="1" fill="#000000" />
<rect x="111" y="9" width="2" height="1" fill="#FFCCAA" />
<rect x="113" y="9" width="4" height="1" fill="#000000" />
<rect x="10" y="10" width="1" height="1" fill="#000000" />
<rect x="11" y="10" width="10" height="12" fill="#FFEC27" />
<rect x="21" y="10" width="1" height="1" fill="#000000" />
<rect x="42" y="10" width="1" height="1" fill="#000000" />
<rect x="43" y="10" width="10" height="12" fill="#FFEC27" />
<rect x="53" y="10" width="1" height="1" fill="#000000" />
<rect x="74" y="10" width="1" height="1" fill="#000000" />
<rect x="75" y="10" width="10" height="12" fill="#FFEC27" />
<rect x="85" y="10" width="1" height="1" fill="#000000" />
<rect x="106" y="10" width="1" height="1" fill="#000000" />
<rect x="107" y="10" width="10" height="12" fill="#FFEC27" />
<rect x="117" y="10" width="1" height="1" fill="#000000" />
<rect x="9" y="11" width="1" height="10" fill="#000000" />
<rect x="10" y="11" width="1" height="10" fill="#FFEC27" />
<rect x="21" y="11" width="1" height="10" fill="#FFEC27" />
<rect x="22" y="11" width="1" height="4" fill="#000000" />
<rect x="41" y="11" width="1" height="3" fill="#000000" />
<rect x="42" y="11" width="1" height="10" fill="#FFEC27" />
<rect x="53" y="11" width="1" height="10" fill="#FFEC27" />
<rect x="54" y="11" width="1" height="3" fill="#000000" />
<rect x="73" y="11" width="1" height="4" fill="#000000" />
<rect x="74" y="11" width="1" height="10" fill="#FFEC27" />
<rect x="85" y="11" width="1" height="10" fill="#FFEC27" />
<rect x="86" y="11" width="1" height="10" fill="#000000" />
<rect x="105" y="11" width="1" height="3" fill="#000000" />
<rect x="106" y="11" width="1" height="10" fill="#FFEC27" />
<rect x="117" y="11" width="1" height="10" fill="#FFEC27" />
<rect x="118" y="11" width="1" height="3" fill="#000000" />
<rect x="40" y="14" width="1" height="4" fill="#000000" />
<rect x="41" y="14" width="1" height="4" fill="#AB5236" />
<rect x="54" y="14" width="1" height="4" fill="#AB5236" />
<rect x="55" y="14" width="1" height="4" fill="#000000" />
<rect x="104" y="14" width="1" height="4" fill="#000000" />
<rect x="105" y="14" width="1" height="4" fill="#AB5236" />
<rect x="118" y="14" width="1" height="4" fill="#AB5236" />
<rect x="119" y="14" width="1" height="4" fill="#000000" />
<rect x="22" y="15" width="1" height="2" fill="#FFCCAA" />
<rect x="23" y="15" width="1" height="2" fill="#000000" />
<rect x="72" y="15" width="1" height="2" fill="#000000" />
<rect x="73" y="15" width="1" height="2" fill="#FFCCAA" />
<rect x="22" y="17" width="1" height="4" fill="#000000" />
<rect x="73" y="17" width="1" height="4" fill="#000000" />
<rect x="41" y="18" width="1" height="3" fill="#000000" />
<rect x="54" y="18" width="1" height="3" fill="#000000" />
<rect x="105" y="18" width="1" height="3" fill="#000000" />
<rect x="118" y="18" width="1" height="3" fill="#000000" />
<rect x="10" y="21" width="1" height="1" fill="#000000" />
<rect x="21" y="21" width="1" height="1" fill="#000000" />
<rect x="42" y="21" width="1" height="1" fill="#000000" />
<rect x="53" y="21" width="1" height="1" fill="#000000" />
<rect x="74" y="21" width="1" height="1" fill="#000000" />
<rect x="85" y="21" width="1" height="1" fill="#000000" />
<rect x="106" y="21" width="1" height="1" fill="#000000" />
<rect x="117" y="21" width="1" height="1" fill="#000000" />
<rect x="11" y="22" width="3" height="1" fill="#000000" />
<rect x="14" y="22" width="4" height="1" fill="#AB5236" />
<rect x="18" y="22" width="3" height="1" fill="#000000" />
<rect x="43" y="22" width="4" height="1" fill="#000000" />
<rect x="47" y="22" width="2" height="1" fill="#FFCCAA" />
<rect x="49" y="22" width="4" height="1" fill="#000000" />
<rect x="75" y="22" width="3" height="1" fill="#000000" />
<rect x="78" y="22" width="4" height="1" fill="#AB5236" />
<rect x="82" y="22" width="3" height="1" fill="#000000" />
<rect x="107" y="22" width="10" height="1" fill="#000000" />
<rect x="14" y="23" width="4" height="1" fill="#000000" />
<rect x="47" y="23" width="2" height="1" fill="#000000" />
<rect x="78" y="23" width="4" height="1" fill="#000000" />
</svg>