<?xml version="1.0" encoding="UTF-8" ?>
<svg version="1.1" width="32" height="32" xmlns="http://www.w3.org/2000/svg" shape-rendering="crispEdges">
<rect x="6" y="11" width="13" height="1" fill="#000000" />
<rect x="27" y="11" width="1" height="10" fill="#000000" />
<rect x="4" y="12" width="2" height="1" fill="#000000" />
<rect x="6" y="12" width="2" height="2" fill="#FFA300" />
<rect x="8" y="12" width="3" height="8" fill="#FFEC27" />
<rect x="11" y="12" width="3" height="8" fill="#00E436" />
<rect x="14" y="12" width="3" height="8" fill="#29ADFF" />
<rect x="17" y="12" width="2" height="8" fill="#1D2B53" />
<rect x="19" y="12" width="2" height="1" fill="#000000" />
<rect x="26" y="12" width="1" height="1" fill="#000000" />
<rect x="3" y="13" width="1" height="1" fill="#000000" />
<rect x="4" y="13" width="1" height="6" fill="#FF004D" />
<rect x="5" y="13" width="1" height="2" fill="#FFA300" />
<rect x="19" y="13" width="1" height="6" fill="#1D2B53" />
<rect x="20" y="13" width="1" height="6" fill="#7E2553" />
<rect x="21" y="13" width="2" height="1" fill="#000000" />
<rect x="25" y="13" width="1" height="1" fill="#000000" />
<rect x="26" y="13" width="1" height="6" fill="#7E2553" />
<rect x="2" y="14" width="1" height="1" fill="#000000" />
<rect x="3" y="14" width="1" height="4" fill="#FF004D" />
<rect x="6" y="14" width="1" height="3" fill="#000000" />
<rect x="7" y="14" width="1" height="1" fill="#FFA300" />
<rect x="21" y="14" width="1" height="4" fill="#7E2553" />
<rect x="22" y="14" width="3" height="1" fill="#000000" />
<rect x="25" y="14" width="1" height="4" fill="#7E2553" />
<rect x="1" y="15" width="1" height="2" fill="#000000" />
<rect x="2" y="15" width="1" height="2" fill="#FF004D" />
<rect x="5" y="15" width="1" height="1" fill="#000000" />
<rect x="7" y="15" width="1" height="1" fill="#000000" />
<rect x="22" y="15" width="3" height="2" fill="#7E2553" />
<rect x="5" y="16" width="1" height="3" fill="#FFA300" />
<rect x="7" y="16" width="1" height="4" fill="#FFA300" />
<rect x="2" y="17" width="1" height="1" fill="#000000" />
<rect x="6" y="17" width="1" height="3" fill="#FFA300" />
<rect x="22" y="17" width="3" height="1" fill="#000000" />
<rect x="3" y="18" width="1" height="1" fill="#000000" />
<rect x="21" y="18" width="1" height="1" fill="#000000" />
<rect x="25" y="18" width="1" height="1" fill="#000000" />
<rect x="4" y="19" width="2" height="1" fill="#000000" />
<rect x="19" y="19" width="2" height="1" fill="#000000" />
<rect x="26" y="19" width="1" height="1" fill="#000000" />
<rect x="6" y="20" width="13" height="1" fill="#000000" />
</svg>