<?xml version="1.0" encoding="UTF-8" ?>
<svg version="1.1" width="128" height="128" xmlns="http://www.w3.org/2000/svg" shape-rendering="crispEdges">
<rect x="0" y="0" width="9" height="1" fill="#29ADFF" />
<rect x="9" y="0" width="1" height="1" fill="#FFF1E8" />
<rect x="10" y="0" width="1" height="1" fill="#29ADFF" />
<rect x="11" y="0" width="1" height="1" fill="#FFF1E8" />
<rect x="12" y="0" width="10" height="1" fill="#29ADFF" />
<rect x="22" y="0" width="1" height="1" fill="#FFF1E8" />
<rect x="23" y="0" width="10" height="1" fill="#29ADFF" />
<rect x="33" y="0" width="1" height="1" fill="#FFF1E8" />
<rect x="34" y="0" width="8" height="1" fill="#29ADFF" />
<rect x="42" y="0" width="1" height="1" fill="#FFF1E8" />
<rect x="43" y="0" width="10" height="1" fill="#29ADFF" />
<rect x="53" y="0" width="2" height="1" fill="#FFF1E8" />
<rect x="55" y="0" width="17" height="1" fill="#29ADFF" />
<rect x="72" y="0" width="1" height="1" fill="#FFF1E8" />
<rect x="73" y="0" width="55" height="1" fill="#29ADFF" />
<rect x="0" y="1" width="6" height="1" fill="#29ADFF" />
<rect x="6" y="1" width="1" height="1" fill="#FFF1E8" />
<rect x="7" y="1" width="1" height="2" fill="#29ADFF" />
<rect x="8" y="1" width="1" height="2" fill="#FFF1E8" />
<rect x="9" y="1" width="1" height="94" fill="#29ADFF" />
<rect x="10" y="1" width="1" height="1" fill="#FFF1E8" />
<rect x="11" y="1" width="1" height="94" fill="#29ADFF" />
<rect x="12" y="1" width="2" height="1" fill="#FFF1E8" />
<rect x="14" y="1" width="9" height="1" fill="#29ADFF" />
<rect x="23" y="1" width="4" height="1" fill="#FFF1E8" />
<rect x="27" y="1" width="14" height="1" fill="#29ADFF" />
<rect x="41" y="1" width="1" height="2" fill="#FFF1E8" />
<rect x="42" y="1" width="2" height="1" fill="#29ADFF" />
<rect x="44" y="1" width="1" height="1" fill="#FFF1E8" />
<rect x="45" y="1" width="3" height="2" fill="#29ADFF" />
<rect x="48" y="1" width="1" height="1" fill="#FFF1E8" />
<rect x="49" y="1" width="1" height="1" fill="#29ADFF" />
<rect x="50" y="1" width="1" height="1" fill="#FFF1E8" />
<rect x="51" y="1" width="4" height="1" fill="#29ADFF" />
<rect x="55" y="1" width="2" height="1" fill="#FFF1E8" />
<rect x="57" y="1" width="2" height="1" fill="#29ADFF" />
<rect x="59" y="1" width="1" height="1" fill="#FFF1E8" />
<rect x="60" y="1" width="3" height="2" fill="#29ADFF" />
<rect x="63" y="1" width="1" height="1" fill="#FFF1E8" />
<rect x="64" y="1" width="1" height="127" fill="#29ADFF" />
<rect x="65" y="1" width="1" height="1" fill="#FFF1E8" />
<rect x="66" y="1" width="4" height="1" fill="#29ADFF" />
<rect x="70" y="1" width="2" height="1" fill="#FFF1E8" />
<rect x="72" y="1" width="1" height="2" fill="#29ADFF" />
<rect x="73" y="1" width="1" height="1" fill="#FFF1E8" />
<rect x="74" y="1" width="3" height="1" fill="#29ADFF" />
<rect x="77" y="1" width="2" height="1" fill="#FFF1E8" />
<rect x="79" y="1" width="3" height="1" fill="#29ADFF" />
<rect x="82" y="1" width="1" height="1" fill="#FFF1E8" />
<rect x="83" y="1" width="2" height="2" fill="#29ADFF" />
<rect x="85" y="1" width="2" height="1" fill="#FFF1E8" />
<rect x="87" y="1" width="2" height="1" fill="#29ADFF" />
<rect x="89" y="1" width="1" height="1" fill="#FFF1E8" />
<rect x="90" y="1" width="38" height="1" fill="#29ADFF" />
<rect x="0" y="2" width="4" height="1" fill="#29ADFF" />
<rect x="4" y="2" width="2" height="1" fill="#FFF1E8" />
<rect x="6" y="2" width="1" height="56" fill="#29ADFF" />
<rect x="10" y="2" width="1" height="90" fill="#29ADFF" />
<rect x="12" y="2" width="2" height="91" fill="#29ADFF" />
<rect x="14" y="2" width="1" height="1" fill="#FFF1E8" />
<rect x="15" y="2" width="2" height="92" fill="#29ADFF" />
<rect x="17" y="2" width="2" height="1" fill="#FFF1E8" />
<rect x="19" y="2" width="3" height="1" fill="#29ADFF" />
<rect x="22" y="2" width="1" height="1" fill="#FFF1E8" />
<rect x="23" y="2" width="5" height="1" fill="#29ADFF" />
<rect x="28" y="2" width="1" height="2" fill="#FFF1E8" />
<rect x="29" y="2" width="1" height="4" fill="#29ADFF" />
<rect x="30" y="2" width="1" height="1" fill="#FFF1E8" />
<rect x="31" y="2" width="4" height="88" fill="#29ADFF" />
<rect x="35" y="2" width="3" height="1" fill="#FFF1E8" />
<rect x="38" y="2" width="2" height="1" fill="#29ADFF" />
<rect x="40" y="2" width="1" height="1" fill="#FFF1E8" />
<rect x="42" y="2" width="1" height="126" fill="#29ADFF" />
<rect x="43" y="2" width="1" height="2" fill="#FFF1E8" />
<rect x="44" y="2" width="1" height="91" fill="#29ADFF" />
<rect x="48" y="2" width="1" height="126" fill="#29ADFF" />
<rect x="49" y="2" width="1" height="1" fill="#FFF1E8" />
<rect x="50" y="2" width="2" height="1" fill="#29ADFF" />
<rect x="52" y="2" width="1" height="2" fill="#FFF1E8" />
<rect x="53" y="2" width="2" height="1" fill="#29ADFF" />
<rect x="55" y="2" width="1" height="1" fill="#FFF1E8" />
<rect x="56" y="2" width="1" height="126" fill="#29ADFF" />
<rect x="57" y="2" width="1" height="1" fill="#FFF1E8" />
<rect x="58" y="2" width="2" height="1" fill="#29ADFF" />
<rect x="63" y="2" width="1" height="93" fill="#29ADFF" />
<rect x="65" y="2" width="3" height="90" fill="#29ADFF" />
<rect x="68" y="2" width="1" height="1" fill="#FFF1E8" />
<rect x="69" y="2" width="2" height="89" fill="#29ADFF" />
<rect x="71" y="2" width="1" height="1" fill="#FFF1E8" />
<rect x="73" y="2" width="1" height="2" fill="#29ADFF" />
<rect x="74" y="2" width="1" height="1" fill="#FFF1E8" />
<rect x="75" y="2" width="4" height="89" fill="#29ADFF" />
<rect x="79" y="2" width="1" height="1" fill="#FFF1E8" />
<rect x="80" y="2" width="3" height="91" fill="#29ADFF" />
<rect x="85" y="2" width="2" height="91" fill="#29ADFF" />
<rect x="87" y="2" width="2" height="1" fill="#FFF1E8" />
<rect x="89" y="2" width="3" height="3" fill="#29ADFF" />
<rect x="92" y="2" width="2" height="1" fill="#FFF1E8" />
<rect x="94" y="2" width="34" height="5" fill="#29ADFF" />
<rect x="0" y="3" width="1" height="3" fill="#29ADFF" />
<rect x="1" y="3" width="1" height="2" fill="#FFF1E8" />
<rect x="2" y="3" width="1" height="2" fill="#29ADFF" />
<rect x="3" y="3" width="1" height="1" fill="#FFF1E8" />
<rect x="4" y="3" width="1" height="6" fill="#29ADFF" />
<rect x="5" y="3" width="1" height="1" fill="#FFF1E8" />
<rect x="7" y="3" width="1" height="1" fill="#FFF1E8" />
<rect x="8" y="3" width="1" height="1" fill="#29ADFF" />
<rect x="14" y="3" width="1" height="125" fill="#29ADFF" />
<rect x="17" y="3" width="2" height="88" fill="#29ADFF" />
<rect x="19" y="3" width="1" height="1" fill="#FFF1E8" />
<rect x="20" y="3" width="5" height="88" fill="#29ADFF" />
<rect x="25" y="3" width="1" height="1" fill="#FFF1E8" />
<rect x="26" y="3" width="2" height="1" fill="#29ADFF" />
<rect x="30" y="3" width="1" height="125" fill="#29ADFF" />
<rect x="35" y="3" width="2" height="2" fill="#29ADFF" />
<rect x="37" y="3" width="3" height="1" fill="#FFF1E8" />
<rect x="40" y="3" width="2" height="92" fill="#29ADFF" />
<rect x="45" y="3" width="3" height="1" fill="#FFF1E8" />
<rect x="49" y="3" width="1" height="89" fill="#29ADFF" />
<rect x="50" y="3" width="1" height="1" fill="#FFF1E8" />
<rect x="51" y="3" width="1" height="89" fill="#29ADFF" />
<rect x="53" y="3" width="1" height="88" fill="#29ADFF" />
<rect x="54" y="3" width="1" height="1" fill="#FFF1E8" />
<rect x="55" y="3" width="1" height="125" fill="#29ADFF" />
<rect x="57" y="3" width="1" height="125" fill="#29ADFF" />
<rect x="58" y="3" width="3" height="1" fill="#FFF1E8" />
<rect x="61" y="3" width="2" height="88" fill="#29ADFF" />
<rect x="68" y="3" width="1" height="89" fill="#29ADFF" />
<rect x="71" y="3" width="1" height="125" fill="#29ADFF" />
<rect x="72" y="3" width="1" height="1" fill="#FFF1E8" />
<rect x="74" y="3" width="1" height="125" fill="#29ADFF" />
<rect x="79" y="3" width="1" height="88" fill="#29ADFF" />
<rect x="83" y="3" width="1" height="1" fill="#FFF1E8" />
<rect x="84" y="3" width="1" height="125" fill="#29ADFF" />
<rect x="87" y="3" width="2" height="86" fill="#29ADFF" />
<rect x="92" y="3" width="1" height="2" fill="#29ADFF" />
<rect x="93" y="3" width="1" height="2" fill="#FFF1E8" />
<rect x="3" y="4" width="1" height="5" fill="#29ADFF" />
<rect x="5" y="4" width="1" height="15" fill="#29ADFF" />
<rect x="7" y="4" width="1" height="89" fill="#29ADFF" />
<rect x="8" y="4" width="1" height="1" fill="#FFF1E8" />
<rect x="19" y="4" width="1" height="124" fill="#29ADFF" />
<rect x="25" y="4" width="2" height="88" fill="#29ADFF" />
<rect x="27" y="4" width="1" height="1" fill="#FFF1E8" />
<rect x="28" y="4" width="1" height="90" fill="#29ADFF" />
<rect x="37" y="4" width="3" height="1" fill="#29ADFF" />
<rect x="43" y="4" width="1" height="90" fill="#29ADFF" />
<rect x="45" y="4" width="3" height="88" fill="#29ADFF" />
<rect x="50" y="4" width="1" height="89" fill="#29ADFF" />
<rect x="52" y="4" width="1" height="124" fill="#29ADFF" />
<rect x="54" y="4" width="1" height="124" fill="#29ADFF" />
<rect x="58" y="4" width="3" height="86" fill="#29ADFF" />
<rect x="72" y="4" width="1" height="86" fill="#29ADFF" />
<rect x="73" y="4" width="1" height="1" fill="#FFF1E8" />
<rect x="83" y="4" width="1" height="89" fill="#29ADFF" />
<rect x="1" y="5" width="1" height="1" fill="#29ADFF" />
<rect x="2" y="5" width="1" height="1" fill="#FFF1E8" />
<rect x="8" y="5" width="1" height="85" fill="#29ADFF" />
<rect x="27" y="5" width="1" height="1" fill="#29ADFF" />
<rect x="35" y="5" width="1" height="1" fill="#FFF1E8" />
<rect x="36" y="5" width="1" height="123" fill="#29ADFF" />
<rect x="37" y="5" width="1" height="1" fill="#FFF1E8" />
<rect x="38" y="5" width="2" height="86" fill="#29ADFF" />
<rect x="73" y="5" width="1" height="123" fill="#29ADFF" />
<rect x="89" y="5" width="2" height="3" fill="#29ADFF" />
<rect x="91" y="5" width="2" height="1" fill="#FFF1E8" />
<rect x="93" y="5" width="1" height="3" fill="#29ADFF" />
<rect x="0" y="6" width="2" height="1" fill="#FFF1E8" />
<rect x="2" y="6" width="1" height="1" fill="#29ADFF" />
<rect x="27" y="6" width="1" height="1" fill="#FFF1E8" />
<rect x="29" y="6" width="1" height="1" fill="#FFF1E8" />
<rect x="35" y="6" width="1" height="122" fill="#29ADFF" />
<rect x="37" y="6" width="1" height="87" fill="#29ADFF" />
<rect x="91" y="6" width="2" height="3" fill="#29ADFF" />
<rect x="0" y="7" width="1" height="1" fill="#FFF1E8" />
<rect x="1" y="7" width="1" height="2" fill="#29ADFF" />
<rect x="2" y="7" width="1" height="1" fill="#FFF1E8" />
<rect x="27" y="7" width="1" height="85" fill="#29ADFF" />
<rect x="29" y="7" width="1" height="121" fill="#29ADFF" />
<rect x="94" y="7" width="1" height="7" fill="#29ADFF" />
<rect x="95" y="7" width="1" height="1" fill="#FFF1E8" />
<rect x="96" y="7" width="32" height="89" fill="#29ADFF" />
<rect x="0" y="8" width="1" height="3" fill="#29ADFF" />
<rect x="2" y="8" width="1" height="1" fill="#29ADFF" />
<rect x="89" y="8" width="1" height="4" fill="#29ADFF" />
<rect x="90" y="8" width="1" height="2" fill="#FFF1E8" />
<rect x="93" y="8" width="1" height="1" fill="#FFF1E8" />
<rect x="95" y="8" width="1" height="6" fill="#29ADFF" />
<rect x="1" y="9" width="4" height="1" fill="#FFF1E8" />
<rect x="91" y="9" width="2" height="1" fill="#FFF1E8" />
<rect x="93" y="9" width="1" height="1" fill="#29ADFF" />
<rect x="1" y="10" width="4" height="2" fill="#29ADFF" />
<rect x="90" y="10" width="3" height="1" fill="#29ADFF" />
<rect x="93" y="10" width="1" height="1" fill="#FFF1E8" />
<rect x="0" y="11" width="1" height="1" fill="#FFF1E8" />
<rect x="90" y="11" width="1" height="2" fill="#FFF1E8" />
<rect x="91" y="11" width="3" height="5" fill="#29ADFF" />
<rect x="0" y="12" width="1" height="22" fill="#29ADFF" />
<rect x="1" y="12" width="1" height="2" fill="#FFF1E8" />
<rect x="2" y="12" width="3" height="1" fill="#29ADFF" />
<rect x="89" y="12" width="1" height="1" fill="#FFF1E8" />
<rect x="2" y="13" width="1" height="1" fill="#FFF1E8" />
<rect x="3" y="13" width="2" height="2" fill="#29ADFF" />
<rect x="89" y="13" width="2" height="3" fill="#29ADFF" />
<rect x="1" y="14" width="2" height="1" fill="#29ADFF" />
<rect x="94" y="14" width="2" height="1" fill="#FFF1E8" />
<rect x="1" y="15" width="3" height="1" fill="#FFF1E8" />
<rect x="4" y="15" width="1" height="4" fill="#29ADFF" />
<rect x="94" y="15" width="2" height="1" fill="#29ADFF" />
<rect x="1" y="16" width="1" height="4" fill="#29ADFF" />
<rect x="2" y="16" width="1" height="2" fill="#FFF1E8" />
<rect x="3" y="16" width="1" height="3" fill="#29ADFF" />
<rect x="89" y="16" width="1" height="2" fill="#29ADFF" />
<rect x="90" y="16" width="1" height="1" fill="#FFF1E8" />
<rect x="91" y="16" width="2" height="4" fill="#29ADFF" />
<rect x="93" y="16" width="1" height="1" fill="#FFF1E8" />
<rect x="94" y="16" width="1" height="12" fill="#29ADFF" />
<rect x="95" y="16" width="1" height="1" fill="#FFF1E8" />
<rect x="90" y="17" width="1" height="20" fill="#29ADFF" />
<rect x="93" y="17" width="1" height="3" fill="#29ADFF" />
<rect x="95" y="17" width="1" height="111" fill="#29ADFF" />
<rect x="2" y="18" width="1" height="1" fill="#29ADFF" />
<rect x="89" y="18" width="1" height="1" fill="#FFF1E8" />
<rect x="2" y="19" width="4" height="1" fill="#FFF1E8" />
<rect x="89" y="19" width="1" height="49" fill="#29ADFF" />
<rect x="1" y="20" width="1" height="1" fill="#FFF1E8" />
<rect x="2" y="20" width="4" height="1" fill="#29ADFF" />
<rect x="91" y="20" width="1" height="1" fill="#FFF1E8" />
<rect x="92" y="20" width="1" height="3" fill="#29ADFF" />
<rect x="93" y="20" width="1" height="1" fill="#FFF1E8" />
<rect x="1" y="21" width="2" height="1" fill="#29ADFF" />
<rect x="3" y="21" width="2" height="1" fill="#FFF1E8" />
<rect x="5" y="21" width="1" height="31" fill="#29ADFF" />
<rect x="91" y="21" width="1" height="9" fill="#29ADFF" />
<rect x="93" y="21" width="1" height="2" fill="#29ADFF" />
<rect x="1" y="22" width="3" height="1" fill="#FFF1E8" />
<rect x="4" y="22" width="1" height="18" fill="#29ADFF" />
<rect x="1" y="23" width="2" height="1" fill="#29ADFF" />
<rect x="3" y="23" width="1" height="1" fill="#FFF1E8" />
<rect x="92" y="23" width="2" height="1" fill="#FFF1E8" />
<rect x="1" y="24" width="2" height="1" fill="#FFF1E8" />
<rect x="3" y="24" width="1" height="1" fill="#29ADFF" />
<rect x="92" y="24" width="2" height="2" fill="#29ADFF" />
<rect x="1" y="25" width="1" height="4" fill="#29ADFF" />
<rect x="2" y="25" width="2" height="1" fill="#FFF1E8" />
<rect x="2" y="26" width="1" height="2" fill="#FFF1E8" />
<rect x="3" y="26" width="1" height="1" fill="#29ADFF" />
<rect x="92" y="26" width="1" height="5" fill="#29ADFF" />
<rect x="93" y="26" width="1" height="1" fill="#FFF1E8" />
<rect x="3" y="27" width="1" height="1" fill="#FFF1E8" />
<rect x="93" y="27" width="1" height="5" fill="#29ADFF" />
<rect x="2" y="28" width="2" height="4" fill="#29ADFF" />
<rect x="94" y="28" width="1" height="1" fill="#FFF1E8" />
<rect x="1" y="29" width="1" height="2" fill="#FFF1E8" />
<rect x="94" y="29" width="1" height="11" fill="#29ADFF" />
<rect x="91" y="30" width="1" height="1" fill="#FFF1E8" />
<rect x="1" y="31" width="1" height="7" fill="#29ADFF" />
<rect x="91" y="31" width="1" height="2" fill="#29ADFF" />
<rect x="92" y="31" width="1" height="1" fill="#FFF1E8" />
<rect x="2" y="32" width="1" height="2" fill="#FFF1E8" />
<rect x="3" y="32" width="1" height="5" fill="#29ADFF" />
<rect x="92" y="32" width="1" height="1" fill="#29ADFF" />
<rect x="93" y="32" width="1" height="2" fill="#FFF1E8" />
<rect x="91" y="33" width="2" height="1" fill="#FFF1E8" />
<rect x="0" y="34" width="1" height="1" fill="#FFF1E8" />
<rect x="2" y="34" width="1" height="2" fill="#29ADFF" />
<rect x="91" y="34" width="1" height="1" fill="#29ADFF" />
<rect x="92" y="34" width="1" height="1" fill="#FFF1E8" />
<rect x="93" y="34" width="1" height="8" fill="#29ADFF" />
<rect x="0" y="35" width="1" height="3" fill="#29ADFF" />
<rect x="91" y="35" width="1" height="1" fill="#FFF1E8" />
<rect x="92" y="35" width="1" height="2" fill="#29ADFF" />
<rect x="2" y="36" width="1" height="2" fill="#FFF1E8" />
<rect x="91" y="36" width="1" height="1" fill="#29ADFF" />
<rect x="3" y="37" width="1" height="1" fill="#FFF1E8" />
<rect x="90" y="37" width="3" height="1" fill="#FFF1E8" />
<rect x="0" y="38" width="2" height="1" fill="#FFF1E8" />
<rect x="2" y="38" width="2" height="6" fill="#29ADFF" />
<rect x="90" y="38" width="3" height="1" fill="#29ADFF" />
<rect x="0" y="39" width="2" height="1" fill="#29ADFF" />
<rect x="90" y="39" width="1" height="1" fill="#FFF1E8" />
<rect x="91" y="39" width="1" height="2" fill="#29ADFF" />
<rect x="92" y="39" width="1" height="1" fill="#FFF1E8" />
<rect x="0" y="40" width="1" height="1" fill="#FFF1E8" />
<rect x="1" y="40" width="1" height="9" fill="#29ADFF" />
<rect x="4" y="40" width="1" height="2" fill="#FFF1E8" />
<rect x="90" y="40" width="1" height="3" fill="#29ADFF" />
<rect x="92" y="40" width="1" height="18" fill="#29ADFF" />
<rect x="94" y="40" width="1" height="1" fill="#FFF1E8" />
<rect x="0" y="41" width="1" height="4" fill="#29ADFF" />
<rect x="91" y="41" width="1" height="1" fill="#FFF1E8" />
<rect x="94" y="41" width="1" height="11" fill="#29ADFF" />
<rect x="4" y="42" width="1" height="1" fill="#29ADFF" />
<rect x="91" y="42" width="1" height="6" fill="#29ADFF" />
<rect x="93" y="42" width="1" height="1" fill="#FFF1E8" />
<rect x="4" y="43" width="1" height="1" fill="#FFF1E8" />
<rect x="90" y="43" width="1" height="1" fill="#FFF1E8" />
<rect x="93" y="43" width="1" height="1" fill="#29ADFF" />
<rect x="2" y="44" width="1" height="1" fill="#29ADFF" />
<rect x="3" y="44" width="1" height="1" fill="#FFF1E8" />
<rect x="4" y="44" width="1" height="29" fill="#29ADFF" />
<rect x="90" y="44" width="1" height="2" fill="#29ADFF" />
<rect x="93" y="44" width="1" height="1" fill="#FFF1E8" />
<rect x="0" y="45" width="1" height="1" fill="#FFF1E8" />
<rect x="2" y="45" width="1" height="1" fill="#FFF1E8" />
<rect x="3" y="45" width="1" height="1" fill="#29ADFF" />
<rect x="93" y="45" width="1" height="1" fill="#29ADFF" />
<rect x="0" y="46" width="1" height="25" fill="#29ADFF" />
<rect x="2" y="46" width="1" height="2" fill="#29ADFF" />
<rect x="3" y="46" width="1" height="1" fill="#FFF1E8" />
<rect x="90" y="46" width="1" height="2" fill="#FFF1E8" />
<rect x="93" y="46" width="1" height="1" fill="#FFF1E8" />
<rect x="3" y="47" width="1" height="6" fill="#29ADFF" />
<rect x="93" y="47" width="1" height="43" fill="#29ADFF" />
<rect x="2" y="48" width="1" height="2" fill="#FFF1E8" />
<rect x="90" y="48" width="1" height="4" fill="#29ADFF" />
<rect x="91" y="48" width="1" height="2" fill="#FFF1E8" />
<rect x="1" y="49" width="1" height="1" fill="#FFF1E8" />
<rect x="1" y="50" width="2" height="1" fill="#29ADFF" />
<rect x="91" y="50" width="1" height="6" fill="#29ADFF" />
<rect x="1" y="51" width="1" height="1" fill="#29ADFF" />
<rect x="2" y="51" width="1" height="1" fill="#FFF1E8" />
<rect x="1" y="52" width="1" height="1" fill="#FFF1E8" />
<rect x="2" y="52" width="1" height="1" fill="#29ADFF" />
<rect x="5" y="52" width="1" height="1" fill="#FFF1E8" />
<rect x="90" y="52" width="1" height="2" fill="#FFF1E8" />
<rect x="94" y="52" width="1" height="1" fill="#FFF1E8" />
<rect x="1" y="53" width="1" height="1" fill="#29ADFF" />
<rect x="2" y="53" width="2" height="1" fill="#FFF1E8" />
<rect x="5" y="53" width="1" height="2" fill="#29ADFF" />
<rect x="94" y="53" width="1" height="75" fill="#29ADFF" />
<rect x="1" y="54" width="1" height="2" fill="#FFF1E8" />
<rect x="2" y="54" width="1" height="3" fill="#29ADFF" />
<rect x="3" y="54" width="1" height="1" fill="#FFF1E8" />
<rect x="90" y="54" width="1" height="2" fill="#29ADFF" />
<rect x="3" y="55" width="1" height="4" fill="#29ADFF" />
<rect x="5" y="55" width="1" height="1" fill="#FFF1E8" />
<rect x="1" y="56" width="1" height="2" fill="#29ADFF" />
<rect x="5" y="56" width="1" height="29" fill="#29ADFF" />
<rect x="90" y="56" width="2" height="1" fill="#FFF1E8" />
<rect x="2" y="57" width="1" height="1" fill="#FFF1E8" />
<rect x="90" y="57" width="2" height="3" fill="#29ADFF" />
<rect x="1" y="58" width="1" height="1" fill="#FFF1E8" />
<rect x="2" y="58" width="1" height="1" fill="#29ADFF" />
<rect x="6" y="58" width="1" height="1" fill="#FFF1E8" />
<rect x="92" y="58" width="1" height="1" fill="#FFF1E8" />
<rect x="1" y="59" width="1" height="18" fill="#29ADFF" />
<rect x="2" y="59" width="2" height="1" fill="#FFF1E8" />
<rect x="6" y="59" width="1" height="21" fill="#29ADFF" />
<rect x="92" y="59" width="1" height="5" fill="#29ADFF" />
<rect x="2" y="60" width="1" height="1" fill="#FFF1E8" />
<rect x="3" y="60" width="1" height="1" fill="#29ADFF" />
<rect x="90" y="60" width="1" height="2" fill="#29ADFF" />
<rect x="91" y="60" width="1" height="1" fill="#FFF1E8" />
<rect x="2" y="61" width="1" height="5" fill="#29ADFF" />
<rect x="3" y="61" width="1" height="1" fill="#FFF1E8" />
<rect x="91" y="61" width="1" height="5" fill="#29ADFF" />
<rect x="3" y="62" width="1" height="4" fill="#29ADFF" />
<rect x="90" y="62" width="1" height="1" fill="#FFF1E8" />
<rect x="90" y="63" width="1" height="2" fill="#29ADFF" />
<rect x="92" y="64" width="1" height="1" fill="#FFF1E8" />
<rect x="90" y="65" width="1" height="1" fill="#FFF1E8" />
<rect x="92" y="65" width="1" height="6" fill="#29ADFF" />
<rect x="2" y="66" width="2" height="1" fill="#FFF1E8" />
<rect x="90" y="66" width="1" height="4" fill="#29ADFF" />
<rect x="91" y="66" width="1" height="1" fill="#FFF1E8" />
<rect x="2" y="67" width="2" height="2" fill="#29ADFF" />
<rect x="91" y="67" width="1" height="2" fill="#29ADFF" />
<rect x="89" y="68" width="1" height="1" fill="#FFF1E8" />
<rect x="2" y="69" width="1" height="8" fill="#29ADFF" />
<rect x="3" y="69" width="1" height="1" fill="#FFF1E8" />
<rect x="89" y="69" width="1" height="7" fill="#29ADFF" />
<rect x="91" y="69" width="1" height="1" fill="#FFF1E8" />
<rect x="3" y="70" width="1" height="4" fill="#29ADFF" />
<rect x="90" y="70" width="1" height="1" fill="#FFF1E8" />
<rect x="91" y="70" width="1" height="2" fill="#29ADFF" />
<rect x="0" y="71" width="1" height="1" fill="#FFF1E8" />
<rect x="90" y="71" width="1" height="5" fill="#29ADFF" />
<rect x="92" y="71" width="1" height="1" fill="#FFF1E8" />
<rect x="0" y="72" width="1" height="1" fill="#29ADFF" />
<rect x="91" y="72" width="1" height="2" fill="#FFF1E8" />
<rect x="92" y="72" width="1" height="3" fill="#29ADFF" />
<rect x="0" y="73" width="1" height="1" fill="#FFF1E8" />
<rect x="4" y="73" width="1" height="1" fill="#FFF1E8" />
<rect x="0" y="74" width="1" height="54" fill="#29ADFF" />
<rect x="3" y="74" width="1" height="1" fill="#FFF1E8" />
<rect x="4" y="74" width="1" height="8" fill="#29ADFF" />
<rect x="91" y="74" width="1" height="2" fill="#29ADFF" />
<rect x="3" y="75" width="1" height="18" fill="#29ADFF" />
<rect x="92" y="75" width="1" height="1" fill="#FFF1E8" />
<rect x="89" y="76" width="3" height="1" fill="#FFF1E8" />
<rect x="92" y="76" width="1" height="10" fill="#29ADFF" />
<rect x="1" y="77" width="2" height="1" fill="#FFF1E8" />
<rect x="89" y="77" width="1" height="1" fill="#FFF1E8" />
<rect x="90" y="77" width="2" height="2" fill="#29ADFF" />
<rect x="1" y="78" width="1" height="50" fill="#29ADFF" />
<rect x="2" y="78" width="1" height="1" fill="#FFF1E8" />
<rect x="89" y="78" width="1" height="3" fill="#29ADFF" />
<rect x="2" y="79" width="1" height="5" fill="#29ADFF" />
<rect x="90" y="79" width="1" height="1" fill="#FFF1E8" />
<rect x="91" y="79" width="1" height="1" fill="#29ADFF" />
<rect x="6" y="80" width="1" height="1" fill="#FFF1E8" />
<rect x="90" y="80" width="1" height="6" fill="#29ADFF" />
<rect x="91" y="80" width="1" height="1" fill="#FFF1E8" />
<rect x="6" y="81" width="1" height="47" fill="#29ADFF" />
<rect x="89" y="81" width="1" height="1" fill="#FFF1E8" />
<rect x="91" y="81" width="1" height="3" fill="#29ADFF" />
<rect x="4" y="82" width="1" height="1" fill="#FFF1E8" />
<rect x="89" y="82" width="1" height="1" fill="#29ADFF" />
<rect x="4" y="83" width="1" height="6" fill="#29ADFF" />
<rect x="89" y="83" width="1" height="2" fill="#FFF1E8" />
<rect x="2" y="84" width="1" height="1" fill="#FFF1E8" />
<rect x="91" y="84" width="1" height="1" fill="#FFF1E8" />
<rect x="2" y="85" width="1" height="2" fill="#29ADFF" />
<rect x="5" y="85" width="1" height="1" fill="#FFF1E8" />
<rect x="89" y="85" width="1" height="8" fill="#29ADFF" />
<rect x="91" y="85" width="1" height="2" fill="#29ADFF" />
<rect x="5" y="86" width="1" height="7" fill="#29ADFF" />
<rect x="90" y="86" width="1" height="1" fill="#FFF1E8" />
<rect x="92" y="86" width="1" height="2" fill="#FFF1E8" />
<rect x="2" y="87" width="1" height="1" fill="#FFF1E8" />
<rect x="90" y="87" width="1" height="5" fill="#29ADFF" />
<rect x="91" y="87" width="1" height="1" fill="#FFF1E8" />
<rect x="2" y="88" width="1" height="40" fill="#29ADFF" />
<rect x="91" y="88" width="2" height="3" fill="#29ADFF" />
<rect x="4" y="89" width="1" height="1" fill="#FFF1E8" />
<rect x="87" y="89" width="1" height="3" fill="#29ADFF" />
<rect x="88" y="89" width="1" height="1" fill="#FFF1E8" />
<rect x="4" y="90" width="1" height="2" fill="#29ADFF" />
<rect x="8" y="90" width="1" height="1" fill="#FFF1E8" />
<rect x="31" y="90" width="1" height="38" fill="#29ADFF" />
<rect x="32" y="90" width="1" height="1" fill="#FFF1E8" />
<rect x="33" y="90" width="2" height="3" fill="#29ADFF" />
<rect x="58" y="90" width="1" height="1" fill="#FFF1E8" />
<rect x="59" y="90" width="2" height="38" fill="#29ADFF" />
<rect x="72" y="90" width="1" height="1" fill="#FFF1E8" />
<rect x="88" y="90" width="1" height="2" fill="#29ADFF" />
<rect x="93" y="90" width="1" height="1" fill="#FFF1E8" />
<rect x="8" y="91" width="1" height="2" fill="#29ADFF" />
<rect x="17" y="91" width="1" height="4" fill="#29ADFF" />
<rect x="18" y="91" width="1" height="1" fill="#FFF1E8" />
<rect x="20" y="91" width="2" height="4" fill="#29ADFF" />
<rect x="22" y="91" width="1" height="1" fill="#FFF1E8" />
<rect x="23" y="91" width="2" height="37" fill="#29ADFF" />
<rect x="32" y="91" width="1" height="37" fill="#29ADFF" />
<rect x="38" y="91" width="1" height="37" fill="#29ADFF" />
<rect x="39" y="91" width="1" height="1" fill="#FFF1E8" />
<rect x="53" y="91" width="1" height="1" fill="#FFF1E8" />
<rect x="58" y="91" width="1" height="1" fill="#29ADFF" />
<rect x="61" y="91" width="1" height="37" fill="#29ADFF" />
<rect x="62" y="91" width="1" height="3" fill="#FFF1E8" />
<rect x="69" y="91" width="1" height="37" fill="#29ADFF" />
<rect x="70" y="91" width="1" height="3" fill="#FFF1E8" />
<rect x="72" y="91" width="1" height="37" fill="#29ADFF" />
<rect x="75" y="91" width="1" height="1" fill="#FFF1E8" />
<rect x="76" y="91" width="1" height="4" fill="#29ADFF" />
<rect x="77" y="91" width="1" height="1" fill="#FFF1E8" />
<rect x="78" y="91" width="1" height="37" fill="#29ADFF" />
<rect x="79" y="91" width="1" height="1" fill="#FFF1E8" />
<rect x="91" y="91" width="1" height="1" fill="#FFF1E8" />
<rect x="92" y="91" width="2" height="1" fill="#29ADFF" />
<rect x="4" y="92" width="1" height="1" fill="#FFF1E8" />
<rect x="10" y="92" width="1" height="2" fill="#FFF1E8" />
<rect x="18" y="92" width="1" height="36" fill="#29ADFF" />
<rect x="22" y="92" width="1" height="36" fill="#29ADFF" />
<rect x="25" y="92" width="1" height="2" fill="#FFF1E8" />
<rect x="26" y="92" width="1" height="36" fill="#29ADFF" />
<rect x="27" y="92" width="1" height="1" fill="#FFF1E8" />
<rect x="39" y="92" width="1" height="36" fill="#29ADFF" />
<rect x="45" y="92" width="1" height="1" fill="#FFF1E8" />
<rect x="46" y="92" width="2" height="36" fill="#29ADFF" />
<rect x="49" y="92" width="1" height="1" fill="#FFF1E8" />
<rect x="51" y="92" width="1" height="1" fill="#FFF1E8" />
<rect x="53" y="92" width="1" height="2" fill="#29ADFF" />
<rect x="58" y="92" width="1" height="1" fill="#FFF1E8" />
<rect x="65" y="92" width="1" height="2" fill="#29ADFF" />
<rect x="66" y="92" width="1" height="1" fill="#FFF1E8" />
<rect x="67" y="92" width="1" height="36" fill="#29ADFF" />
<rect x="68" y="92" width="1" height="1" fill="#FFF1E8" />
<rect x="75" y="92" width="1" height="36" fill="#29ADFF" />
<rect x="77" y="92" width="1" height="36" fill="#29ADFF" />
<rect x="79" y="92" width="1" height="36" fill="#29ADFF" />
<rect x="87" y="92" width="2" height="1" fill="#FFF1E8" />
<rect x="90" y="92" width="1" height="1" fill="#FFF1E8" />
<rect x="91" y="92" width="2" height="36" fill="#29ADFF" />
<rect x="93" y="92" width="1" height="1" fill="#FFF1E8" />
<rect x="3" y="93" width="1" height="1" fill="#FFF1E8" />
<rect x="4" y="93" width="1" height="35" fill="#29ADFF" />
<rect x="5" y="93" width="1" height="1" fill="#FFF1E8" />
<rect x="7" y="93" width="2" height="1" fill="#FFF1E8" />
<rect x="12" y="93" width="1" height="35" fill="#29ADFF" />
<rect x="13" y="93" width="1" height="1" fill="#FFF1E8" />
<rect x="27" y="93" width="1" height="35" fill="#29ADFF" />
<rect x="33" y="93" width="1" height="35" fill="#29ADFF" />
<rect x="34" y="93" width="1" height="2" fill="#FFF1E8" />
<rect x="37" y="93" width="1" height="1" fill="#FFF1E8" />
<rect x="44" y="93" width="1" height="1" fill="#FFF1E8" />
<rect x="45" y="93" width="1" height="35" fill="#29ADFF" />
<rect x="49" y="93" width="1" height="35" fill="#29ADFF" />
<rect x="50" y="93" width="1" height="1" fill="#FFF1E8" />
<rect x="51" y="93" width="1" height="35" fill="#29ADFF" />
<rect x="58" y="93" width="1" height="2" fill="#29ADFF" />
<rect x="66" y="93" width="1" height="35" fill="#29ADFF" />
<rect x="68" y="93" width="1" height="35" fill="#29ADFF" />
<rect x="80" y="93" width="1" height="1" fill="#FFF1E8" />
<rect x="81" y="93" width="2" height="1" fill="#29ADFF" />
<rect x="83" y="93" width="1" height="1" fill="#FFF1E8" />
<rect x="85" y="93" width="1" height="1" fill="#FFF1E8" />
<rect x="86" y="93" width="3" height="35" fill="#29ADFF" />
<rect x="89" y="93" width="1" height="1" fill="#FFF1E8" />
<rect x="90" y="93" width="1" height="35" fill="#29ADFF" />
<rect x="93" y="93" width="1" height="35" fill="#29ADFF" />
<rect x="3" y="94" width="1" height="1" fill="#29ADFF" />
<rect x="5" y="94" width="1" height="34" fill="#29ADFF" />
<rect x="7" y="94" width="1" height="1" fill="#FFF1E8" />
<rect x="8" y="94" width="1" height="34" fill="#29ADFF" />
<rect x="10" y="94" width="1" height="34" fill="#29ADFF" />
<rect x="13" y="94" width="1" height="34" fill="#29ADFF" />
<rect x="15" y="94" width="2" height="1" fill="#FFF1E8" />
<rect x="25" y="94" width="1" height="34" fill="#29ADFF" />
<rect x="28" y="94" width="1" height="1" fill="#FFF1E8" />
<rect x="37" y="94" width="1" height="34" fill="#29ADFF" />
<rect x="43" y="94" width="1" height="1" fill="#FFF1E8" />
<rect x="44" y="94" width="1" height="34" fill="#29ADFF" />
<rect x="50" y="94" width="1" height="34" fill="#29ADFF" />
<rect x="53" y="94" width="1" height="1" fill="#FFF1E8" />
<rect x="62" y="94" width="1" height="34" fill="#29ADFF" />
<rect x="65" y="94" width="1" height="1" fill="#FFF1E8" />
<rect x="70" y="94" width="1" height="34" fill="#29ADFF" />
<rect x="80" y="94" width="2" height="34" fill="#29ADFF" />
<rect x="82" y="94" width="1" height="1" fill="#FFF1E8" />
<rect x="83" y="94" width="1" height="34" fill="#29ADFF" />
<rect x="85" y="94" width="1" height="34" fill="#29ADFF" />
<rect x="89" y="94" width="1" height="34" fill="#29ADFF" />
<rect x="3" y="95" width="1" height="1" fill="#FFF1E8" />
<rect x="7" y="95" width="1" height="33" fill="#29ADFF" />
<rect x="9" y="95" width="1" height="1" fill="#FFF1E8" />
<rect x="11" y="95" width="1" height="1" fill="#FFF1E8" />
<rect x="15" y="95" width="2" height="33" fill="#29ADFF" />
<rect x="17" y="95" width="1" height="1" fill="#FFF1E8" />
<rect x="20" y="95" width="1" height="1" fill="#FFF1E8" />
<rect x="21" y="95" width="1" height="33" fill="#29ADFF" />
<rect x="28" y="95" width="1" height="33" fill="#29ADFF" />
<rect x="34" y="95" width="1" height="33" fill="#29ADFF" />
<rect x="40" y="95" width="1" height="1" fill="#FFF1E8" />
<rect x="41" y="95" width="1" height="33" fill="#29ADFF" />
<rect x="43" y="95" width="1" height="33" fill="#29ADFF" />
<rect x="53" y="95" width="1" height="33" fill="#29ADFF" />
<rect x="58" y="95" width="1" height="1" fill="#FFF1E8" />
<rect x="63" y="95" width="1" height="1" fill="#FFF1E8" />
<rect x="65" y="95" width="1" height="33" fill="#29ADFF" />
<rect x="76" y="95" width="1" height="1" fill="#FFF1E8" />
<rect x="82" y="95" width="1" height="33" fill="#29ADFF" />
<rect x="3" y="96" width="1" height="32" fill="#29ADFF" />
<rect x="9" y="96" width="1" height="32" fill="#29ADFF" />
<rect x="11" y="96" width="1" height="32" fill="#29ADFF" />
<rect x="17" y="96" width="1" height="32" fill="#29ADFF" />
<rect x="20" y="96" width="1" height="32" fill="#29ADFF" />
<rect x="40" y="96" width="1" height="32" fill="#29ADFF" />
<rect x="58" y="96" width="1" height="32" fill="#29ADFF" />
<rect x="63" y="96" width="1" height="32" fill="#29ADFF" />
<rect x="76" y="96" width="1" height="32" fill="#29ADFF" />
<rect x="96" y="96" width="32" height="32" fill="#FFCCAA" />
</svg>